# xmcd CD database file
#
# Track frame offsets:
#	150
#	14205
#	26246
#	37607
#	51851
#	65088
#	76466
#	89422
#	101840
#	111411
#	124577
#	137562
#	149137
#	161825
#	172080
#	186081
#	197953
#	209984
#
# Disc length: 2959 seconds
#
# Revision: 0
# Processed by: cddbd v1.5.2PL0 Copyright (c) Steve Scherf et al.
# Submitted via: CDex 1.51
#
DISCID=200b8d12
DTITLE=Demore Brothers - Blues Stays Away From Me
DYEAR=2003
DGENRE=Country
TTITLE0=I've Got The Kansa City Blues
TTITLE1=Lonesome Yodel Blues
TTITLE2=I'm Mississippi Bound
TTITLE3=I Ain't Got Nowhere To Travel
TTITLE4=Lonesome Jailhouse Rock
TTITLE5=Brown's Ferry Blues #2
TTITLE6=Blow Your Whistle Freight Train
TTITLE7=I'm Going Away
TTITLE8=Down South
TTITLE9=I'm Worried Now
TTITLE10=False Hearted Girl
TTITLE11=Singing My Troubles Away
TTITLE12=Weary Lonesome Blues
TTITLE13=I've Got The Railroad Blues
TTITLE14=Hi De Ho Baby Mine
TTITLE15=Baby You're Throwing Me Down
TTITLE16=Wabash Blues
TTITLE17=Scatterbrain Mama
EXTD=YEAR: 2003
EXTT0=
EXTT1=
EXTT2=
EXTT3=
EXTT4=
EXTT5=
EXTT6=
EXTT7=
EXTT8=
EXTT9=
EXTT10=
EXTT11=
EXTT12=
EXTT13=
EXTT14=
EXTT15=
EXTT16=
EXTT17=
PLAYORDER=
